<svg xmlns="http://www.w3.org/2000/svg" xmlns:xlink="http://www.w3.org/1999/xlink" width="49.789" height="49.783" viewBox="0 0 49.789 49.783">
  <defs>
    <linearGradient id="linear-gradient" x1="0.5" x2="0.5" y2="1" gradientUnits="objectBoundingBox">
      <stop offset="0" stop-color="#1b3659"/>
      <stop offset="1" stop-color="#001f44"/>
    </linearGradient>
  </defs>
  <g id="Group_610" data-name="Group 610" transform="translate(-305.721 -343)">
    <path id="Path_1995" data-name="Path 1995" d="M355.51,355.349v28.88c-.043.2-.089.405-.129.608a9.636,9.636,0,0,1-9.639,7.945q-15.118,0-30.235,0a11.984,11.984,0,0,1-1.4-.088,9.584,9.584,0,0,1-8.378-9.432q-.008-13.44,0-26.881a9.273,9.273,0,0,1,3.555-7.4,9.523,9.523,0,0,1,6.191-2.171c.56,0,1.121,0,1.714,0,.046-1.482-.394-3.106,1.466-3.807h.972a2.273,2.273,0,0,1,1.463,2.587c-.038.394-.006.8-.006,1.187h19.062c0-.628,0-1.224,0-1.82a1.776,1.776,0,0,1,.586-1.386A6.452,6.452,0,0,1,341.6,343h.972a2.225,2.225,0,0,1,1.469,2.529c-.041.41-.007.828-.007,1.283.708,0,1.353-.013,2,0a9.638,9.638,0,0,1,9.206,7.368C355.34,354.569,355.422,354.96,355.51,355.349Zm-45.877,6.883c-.007.156-.019.283-.019.411q0,10.256.005,20.512a5.346,5.346,0,0,0,.139,1.2,5.729,5.729,0,0,0,5.822,4.531q15.043.01,30.087,0a6.291,6.291,0,0,0,1.4-.143A5.713,5.713,0,0,0,351.62,383q0-10.134,0-20.269v-.5Zm41.939-3.975c.667-5.594-3.179-8.158-7.536-7.422,0,1.256.011,2.518,0,3.779a1.9,1.9,0,0,1-1.546,1.806,1.934,1.934,0,0,1-2.337-1.941c-.007-1.227,0-2.454,0-3.705H321.086c0,1.274.009,2.518,0,3.762a1.942,1.942,0,0,1-3.884.022c-.013-.972,0-1.944,0-2.916,0-.286,0-.572,0-.85-5.341-.647-8.131,2.726-7.527,7.466Z" fill="url(#linear-gradient)"/>
    <path id="Path_1996" data-name="Path 1996" d="M559.777,534.617c.647,0,1.294-.005,1.941,0a1.942,1.942,0,0,1,.029,3.883q-1.965.018-3.93,0a1.942,1.942,0,0,1,.019-3.884C558.483,534.611,559.13,534.617,559.777,534.617Z" transform="translate(-217.683 -166.723)" fill="url(#linear-gradient)"/>
    <path id="Path_1997" data-name="Path 1997" d="M383.064,534.611c.647,0,1.294-.006,1.941,0a1.942,1.942,0,0,1,.008,3.884q-1.965.017-3.93,0a1.942,1.942,0,0,1-.008-3.882C381.738,534.6,382.4,534.612,383.064,534.611Z" transform="translate(-63.919 -166.718)" fill="url(#linear-gradient)"/>
    <path id="Path_1998" data-name="Path 1998" d="M471.326,538.492c-.631,0-1.261.006-1.892,0a1.942,1.942,0,0,1,0-3.885q1.941-.011,3.881,0a1.942,1.942,0,0,1,0,3.884C472.652,538.5,471.989,538.492,471.326,538.492Z" transform="translate(-140.757 -166.71)" fill="url(#linear-gradient)"/>
    <path id="Path_1999" data-name="Path 1999" d="M471.351,622.913c.663,0,1.326-.012,1.989,0a1.941,1.941,0,0,1,0,3.882q-1.965.023-3.93,0a1.942,1.942,0,0,1,0-3.883C470.057,622.9,470.7,622.913,471.351,622.913Z" transform="translate(-140.756 -243.548)" fill="url(#linear-gradient)"/>
    <path id="Path_2000" data-name="Path 2000" d="M383.048,626.777c-.647,0-1.294.009-1.941,0a1.96,1.96,0,0,1-1.926-1.966,1.927,1.927,0,0,1,1.915-1.917q1.965-.023,3.93,0a1.937,1.937,0,0,1,1.906,1.931,1.969,1.969,0,0,1-1.943,1.953C384.342,626.785,383.7,626.778,383.048,626.777Z" transform="translate(-63.919 -243.523)" fill="url(#linear-gradient)"/>
    <path id="Path_2001" data-name="Path 2001" d="M559.795,622.914c.663,0,1.326-.013,1.989,0a1.941,1.941,0,0,1,0,3.879c-1.326.019-2.652.017-3.978,0a1.941,1.941,0,0,1,0-3.882C558.468,622.9,559.132,622.914,559.795,622.914Z" transform="translate(-217.684 -243.548)" fill="url(#linear-gradient)"/>
  </g>
</svg>
