<svg xmlns="http://www.w3.org/2000/svg" width="52.413" height="52.427" viewBox="0 0 52.413 52.427">
  <g id="Group_7755" data-name="Group 7755" transform="translate(69.843 95.229)">
    <path id="Path_48631" data-name="Path 48631" d="M-17.43-70.555v3.071c-.032.181-.068.362-.094.544-.164,1.129-.257,2.272-.5,3.384a25.459,25.459,0,0,1-9.727,15.336,25.422,25.422,0,0,1-21.392,4.8,25.3,25.3,0,0,1-15.264-9.661,25.489,25.489,0,0,1-5.3-18.562,25.32,25.32,0,0,1,6.394-14.652,25.733,25.733,0,0,1,15.159-8.527c.986-.176,1.986-.274,2.98-.408H-42.1a2.8,2.8,0,0,0,.4.084,24.942,24.942,0,0,1,11.435,3.607A25.868,25.868,0,0,1-17.838-73.529C-17.655-72.547-17.564-71.547-17.43-70.555Zm-26.192-20.6A22.156,22.156,0,0,0-65.778-69.049a22.164,22.164,0,0,0,22.1,22.168A22.164,22.164,0,0,0-21.5-69.016,22.15,22.15,0,0,0-43.622-91.158Z" transform="translate(0 0)" fill="#1b3659"/>
    <path id="Path_48632" data-name="Path 48632" d="M118.589,7.666c0-1.962-.012-3.924,0-5.886A2.037,2.037,0,0,1,121.33-.261a2.093,2.093,0,0,1,1.334,2.147c0,3.429.009,6.858-.008,10.287a1.1,1.1,0,0,0,.494,1.012q3.377,2.488,6.715,5.031a2.028,2.028,0,1,1-2.425,3.243c-1.877-1.391-3.741-2.8-5.61-4.2-.737-.553-1.462-1.121-2.213-1.654a2.334,2.334,0,0,1-1.031-2.051C118.6,11.59,118.589,9.628,118.589,7.666Z" transform="translate(-164.267 -82.675)" fill="#1b3659"/>
  </g>
</svg>
